Coordinates
version=1
nRows=22
nColumns=24
inDegrees=yes

Units are S.I. units (second, meters, Newtons, ...)
Angles are in degrees.

endheader
time	pelvis_tilt	pelvis_list	pelvis_rotation	pelvis_tx	pelvis_ty	pelvis_tz	hip_flexion_r	hip_adduction_r	hip_rotation_r	knee_angle_r	ankle_angle_r	subtalar_angle_r	mtp_angle_r	hip_flexion_l	hip_adduction_l	hip_rotation_l	knee_angle_l	ankle_angle_l	subtalar_angle_l	mtp_angle_l	lumbar_extension	lumbar_bending	lumbar_rotation
      4.00500000	    -21.02828656	     -1.59604879	      7.83236310	     -1.80421864	     -0.03034162	     -0.31038832	     46.15599542	      0.03977094	      4.18126993	     -5.80742792	     22.17572896	     -4.55835226	   -118.26715388	      0.28491435	      1.64666748	     16.25066211	     -8.63797950	      0.65652202	     -2.24049368	     17.65832665	     12.76117489	     -2.12114386	     -8.72062519
      4.01000000	    -21.16332355	     -1.73813800	      7.99471691	     -1.79610218	     -0.03209222	     -0.31012716	     46.59463782	      0.09373732	      3.94663327	     -6.39076220	     22.40645390	     -4.27271463	   -118.23511750	      0.32544004	      1.45496846	     16.37368024	     -9.43723216	      0.74937203	     -1.63553480	     18.33542916	     12.93053102	     -2.04617484	     -8.88407423
      4.01500000	    -21.19774873	     -1.79824461	      8.10732320	     -1.78792310	     -0.03373402	     -0.30971823	     46.95555668	      0.15063169	      3.85070500	     -7.18747756	     22.60306902	     -4.04531608	   -118.25512803	      0.23531092	      1.31732601	     16.37577584	    -10.16505570	      0.56600233	     -1.09701133	     19.81186083	     12.97662570	     -2.03740730	     -9.00075771
      4.02000000	    -21.20621878	     -1.93389028	      8.29892606	     -1.77949327	     -0.03525181	     -0.30943461	     47.21208499	      0.22580161	      3.82897444	     -8.00729888	     22.62193535	     -4.10236360	   -118.34142037	      0.11766060	      1.10799348	     16.68698476	    -10.92934284	      0.35611286	     -0.68975910	     20.24081822	     13.03909878	     -1.96377913	     -9.23756530
      4.02500000	    -21.24545876	     -2.07835514	      8.34679810	     -1.77088291	     -0.03689040	     -0.30896929	     47.56563366	      0.41651048	      3.71784839	     -9.03305909	     22.58456895	     -4.03040330	   -118.98033887	      0.05679326	      0.86627626	     16.48994667	    -11.65616266	     -0.08576702	     -0.20919341	     22.83882694	     13.15987320	     -1.84218932	     -9.30278732
      4.03000000	    -21.20293257	     -2.12156655	      8.39157847	     -1.76225412	     -0.03835438	     -0.30846952	     47.86876322	      0.54828330	      3.53175704	    -10.25348143	     22.39293218	     -3.88744718	   -119.26016426	     -0.07074901	      0.74190064	     16.35440595	    -12.52334580	     -0.42035337	      0.43469862	     23.31827864	     13.16853985	     -1.81754471	     -9.35804614
      4.03500000	    -21.19059130	     -2.27306708	      8.38929357	     -1.75334895	     -0.03978531	     -0.30783827	     48.13694482	      0.82286029	      3.44561420	    -11.38384668	     21.84069457	     -4.20843538	   -120.47231515	     -0.15470873	      0.46728794	     15.97961878	    -13.28033991	     -1.15999786	      0.94757162	     25.88384330	     13.26397489	     -1.68029764	     -9.39159779
      4.04000000	    -21.16992034	     -2.40273463	      8.36966556	     -1.74445716	     -0.04119041	     -0.30728812	     48.48031202	      1.06999796	      3.07745143	    -12.74750166	     21.12107668	     -4.21951139	   -120.91734724	     -0.18112512	      0.24858157	     15.66593775	    -14.25763256	     -1.62329113	      1.69677243	     26.55970697	     13.34057013	     -1.54148110	     -9.36284703
      4.04500000	    -21.08629913	     -2.60641682	      8.28663185	     -1.73537135	     -0.04239352	     -0.30654869	     48.67694671	      1.46646713	      2.93359519	    -13.94913775	     19.97832495	     -4.83219656	   -122.25667572	     -0.28150705	     -0.10011313	     15.09385376	    -15.06216240	     -2.67653596	      2.09120267	     29.51363536	     13.37834353	     -1.31443591	     -9.34272223
      4.05000000	    -21.13646017	     -2.73147704	      8.14238342	     -1.72633561	     -0.04368902	     -0.30579927	     49.10088687	      1.80562542	      2.68369364	    -15.35326777	     18.65627975	     -5.17963952	   -122.57010485	     -0.15063260	     -0.32038903	     14.43598949	    -16.13861466	     -3.49619087	      2.92197716	     30.20383992	     13.54787940	     -1.15594622	     -9.18674870
      4.05500000	    -21.01420229	     -2.98543898	      7.99125371	     -1.71715934	     -0.04462852	     -0.30497608	     49.27710769	      2.29305210	      2.44764339	    -16.62320641	     17.11405012	     -5.87405687	   -123.13821252	     -0.19073783	     -0.75370145	     13.56474602	    -17.02566015	     -4.90729311	      3.38511907	     33.54934561	     13.55360675	     -0.84458072	     -9.11706832
      4.06000000	    -21.12035831	     -3.12208220	      7.75694941	     -1.70812449	     -0.04574074	     -0.30406084	     49.72915551	      2.73184844	      2.49468674	    -17.97303894	     15.45994220	     -6.63251289	   -123.11037797	      0.09487000	     -0.99498779	     12.73672012	    -18.18560994	     -6.18013492	      4.06978697	     34.30906321	     13.77238604	     -0.66176362	     -8.88093937
      4.06500000	    -21.02026248	     -3.44370818	      7.55293924	     -1.69883897	     -0.04645690	     -0.30314854	     49.90939120	      3.31888660	      2.29873012	    -19.27251219	     13.92454150	     -7.29186217	   -122.23476030	      0.18978189	     -1.54506356	     11.59295514	    -19.13785124	     -8.04608945	      4.57675347	     38.17293972	     13.82102670	     -0.27119361	     -8.77258909
      4.07000000	    -21.06825082	     -3.66897778	      7.27477086	     -1.68965515	     -0.04726290	     -0.30214281	     50.24940811	      3.89242811	      2.37895842	    -20.62296618	     12.52938580	     -7.97383331	   -120.75004327	      0.49716261	     -1.96147880	     10.46556112	    -20.23500011	     -9.99745942	      5.09800805	     40.63028109	     14.00089661	      0.02044289	     -8.53175465
      4.07500000	    -21.05314765	     -3.91246862	      6.98779274	     -1.68044105	     -0.04788294	     -0.30112095	     50.47884578	      4.51907557	      2.53499788	    -21.96438274	     11.41940586	     -8.59802027	   -118.61395801	      0.77485507	     -2.42744596	      9.32297024	    -21.33418478	    -12.21436891	      5.54616586	     43.09075107	     14.11455853	      0.34243237	     -8.30013156
      4.08000000	    -21.02090795	     -4.11567076	      6.70449797	     -1.67125425	     -0.04834813	     -0.30011286	     50.64329635	      5.13930304	      2.79159900	    -23.31619228	     10.63116449	     -9.08905264	   -115.63899635	      1.05723733	     -2.84982161	      8.28928930	    -22.41236380	    -14.77463759	      5.76456349	     45.41870059	     14.19815460	      0.62079307	     -8.08645490
      4.08500000	    -20.97672830	     -4.40021811	      6.40954877	     -1.66205222	     -0.04875364	     -0.29907201	     50.75093507	      5.84585284	      2.95789348	    -24.60834514	     10.21917564	     -9.54076354	   -113.10853929	      1.42790172	     -3.40307427	      7.14671007	    -23.63730328	    -17.30220354	      6.31023181	     47.02611981	     14.28121600	      0.98491228	     -7.83380364
      4.09000000	    -20.93782597	     -4.59530302	      6.07256667	     -1.65289689	     -0.04909772	     -0.29804800	     50.80596513	      6.53081068	      3.30434876	    -25.88796453	     10.27555210	     -9.80351999	   -110.83141427	      1.80030716	     -3.83829264	      6.15543639	    -24.83883852	    -20.07713945	      6.60726074	     48.24632730	     14.35716022	      1.27549902	     -7.56616040
      4.09500000	    -20.86137830	     -4.89458282	      5.83821424	     -1.64390846	     -0.04923551	     -0.29721047	     50.73577675	      7.21979337	      3.46371795	    -26.94494506	     10.65335051	    -10.30527989	   -110.63829267	      2.27017565	     -4.36212625	      5.40640507	    -26.23394566	    -22.79974569	      6.92408706	     48.09158139	     14.38228275	      1.65366326	     -7.40983964
      4.10000000	    -20.76790761	     -5.11394974	      5.49877358	     -1.63492398	     -0.04931301	     -0.29614987	     50.60462363	      7.96300620	      3.76435813	    -28.07080560	     11.00567883	    -10.45812878	   -107.77794234	      2.67005817	     -4.81902149	      4.67888067	    -27.45420296	    -25.86083202	      7.00607457	     49.40777207	     14.37555846	      1.96378213	     -7.07707824
      4.10500000	    -20.70511737	     -5.44865289	      5.21725821	     -1.62604246	     -0.04935433	     -0.29523965	     50.40586353	      8.72801942	      3.97037343	    -28.93927399	     11.75429949	    -10.76279924	   -107.60751775	      3.24582746	     -5.37250652	      4.10123502	    -28.94303863	    -28.58179584	      7.22634078	     49.04150355	     14.41228700	      2.38083410	     -6.88611823
      4.11000000	    -20.63181079	     -5.73464783	      4.90191135	     -1.61731376	     -0.04927052	     -0.29432334	     50.13500680	      9.46822089	      4.18917118	    -29.71566477	     12.55037432	    -10.98079288	   -107.41883557	      3.84608413	     -5.83871521	      3.64457900	    -30.46225863	    -31.34764986	      7.18234100	     48.51238069	     14.40887085	      2.75940668	     -6.60731837
